<svg width="23" height="21" viewBox="0 0 23 21" fill="none" xmlns="http://www.w3.org/2000/svg">
<path d="M12.2444 6.34082H1.12305C0.825196 6.34082 0.539545 6.2225 0.328933 6.01189C0.118321 5.80128 0 5.51562 0 5.21777C0 4.91992 0.118321 4.63427 0.328933 4.42366C0.539545 4.21305 0.825196 4.09473 1.12305 4.09473H12.2457C12.5436 4.09473 12.8292 4.21305 13.0398 4.42366C13.2504 4.63427 13.3687 4.91992 13.3687 5.21777C13.3687 5.51562 13.2504 5.80128 13.0398 6.01189C12.8292 6.2225 12.5436 6.34082 12.2457 6.34082H12.2444Z" fill="white"/>
<path d="M21.8769 6.34082H19.0657C18.7678 6.34082 18.4822 6.2225 18.2716 6.01189C18.0609 5.80128 17.9426 5.51562 17.9426 5.21777C17.9426 4.91992 18.0609 4.63427 18.2716 4.42366C18.4822 4.21305 18.7678 4.09473 19.0657 4.09473H21.8769C22.1747 4.09473 22.4604 4.21305 22.671 4.42366C22.8816 4.63427 22.9999 4.91992 22.9999 5.21777C22.9999 5.51562 22.8816 5.80128 22.671 6.01189C22.4604 6.2225 22.1747 6.34082 21.8769 6.34082Z" fill="white"/>
<path d="M21.8772 16.7129H10.7559C10.458 16.7129 10.1724 16.5946 9.96175 16.384C9.75113 16.1733 9.63281 15.8877 9.63281 15.5898C9.63281 15.292 9.75113 15.0063 9.96175 14.7957C10.1724 14.5851 10.458 14.4668 10.7559 14.4668H21.8772C22.175 14.4668 22.4607 14.5851 22.6713 14.7957C22.8819 15.0063 23.0002 15.292 23.0002 15.5898C23.0002 15.8877 22.8819 16.1733 22.6713 16.384C22.4607 16.5946 22.175 16.7129 21.8772 16.7129Z" fill="white"/>
<path d="M3.93426 16.7129H1.12305C0.825196 16.7129 0.539545 16.5946 0.328933 16.384C0.118321 16.1733 0 15.8877 0 15.5898C0 15.292 0.118321 15.0063 0.328933 14.7957C0.539545 14.5851 0.825196 14.4668 1.12305 14.4668H3.93426C4.23211 14.4668 4.51776 14.5851 4.72837 14.7957C4.93898 15.0063 5.0573 15.292 5.0573 15.5898C5.0573 15.8877 4.93898 16.1733 4.72837 16.384C4.51776 16.5946 4.23211 16.7129 3.93426 16.7129Z" fill="white"/>
<path d="M7.34496 20.0396C6.44821 20.0397 5.57157 19.7739 4.8259 19.2757C4.08024 18.7776 3.49904 18.0695 3.15581 17.241C2.81257 16.4126 2.72272 15.5009 2.89761 14.6214C3.07251 13.7419 3.50429 12.9339 4.13836 12.2998C4.77243 11.6657 5.5803 11.2338 6.45982 11.0588C7.33933 10.8839 8.25098 10.9736 9.07948 11.3168C9.90798 11.6599 10.6161 12.241 11.1143 12.9867C11.6126 13.7323 11.8785 14.6089 11.8785 15.5056C11.8776 16.7078 11.3998 17.8605 10.5497 18.7106C9.69974 19.5607 8.54711 20.0387 7.34496 20.0396ZM7.34496 13.2182C6.89243 13.2181 6.45003 13.3523 6.07372 13.6036C5.69741 13.855 5.4041 14.2123 5.23088 14.6304C5.05766 15.0484 5.01232 15.5085 5.10058 15.9523C5.18885 16.3962 5.40675 16.8039 5.72674 17.1239C6.04674 17.4439 6.45444 17.6618 6.89828 17.75C7.34213 17.8383 7.80218 17.7929 8.22025 17.6197C8.63832 17.4465 8.99564 17.1532 9.247 16.7769C9.49836 16.4006 9.63247 15.9582 9.63238 15.5056C9.63143 14.8993 9.39013 14.318 8.96136 13.8892C8.5326 13.4605 7.95133 13.2192 7.34496 13.2182Z" fill="white"/>
<path d="M15.6551 9.75153C14.7583 9.75153 13.8817 9.48561 13.1361 8.98741C12.3905 8.48922 11.8094 7.78111 11.4662 6.95263C11.1231 6.12416 11.0333 5.21253 11.2082 4.33303C11.3832 3.45353 11.815 2.64565 12.4491 2.01156C13.0831 1.37748 13.891 0.945659 14.7705 0.770715C15.65 0.595771 16.5617 0.685558 17.3901 1.02872C18.2186 1.37189 18.9267 1.95302 19.4249 2.69862C19.9231 3.44423 20.189 4.32083 20.189 5.21756C20.1882 6.41979 19.7102 7.57254 18.8601 8.42264C18.01 9.27274 16.8573 9.75069 15.6551 9.75153ZM15.6551 2.93014C15.2025 2.93014 14.7602 3.06433 14.3839 3.31575C14.0077 3.56716 13.7145 3.9245 13.5413 4.34258C13.3681 4.76066 13.3229 5.2207 13.4112 5.66452C13.4995 6.10833 13.7174 6.51599 14.0375 6.83594C14.3575 7.15588 14.7652 7.37375 15.209 7.46197C15.6528 7.5502 16.1129 7.50483 16.5309 7.3316C16.9489 7.15837 17.3062 6.86505 17.5576 6.48876C17.8089 6.11246 17.943 5.67008 17.9429 5.21756C17.942 4.61111 17.7006 4.02978 17.2718 3.601C16.8429 3.17222 16.2615 2.93097 15.6551 2.93014Z" fill="white"/>
</svg>
