<svg width="12" height="19" viewBox="0 0 12 19" fill="none" xmlns="http://www.w3.org/2000/svg">
<path d="M3.67634 18.9518C3.92764 19.0592 4.21983 18.9696 4.36661 18.7377L11.0452 8.12615C11.1534 7.9544 11.1599 7.73753 11.0621 7.56036C10.9642 7.38263 10.7773 7.27229 10.5745 7.27229H6.11722L7.77492 0.693526C7.84178 0.427755 7.70643 0.153264 7.4548 0.0451079C7.20479 -0.0624919 6.91075 0.0277064 6.76452 0.259231L0.0859203 10.8708C-0.022236 11.0425 -0.0287663 11.2594 0.0690753 11.4366C0.166917 11.6143 0.353881 11.7247 0.556613 11.7247H5.01391L3.35621 18.3034C3.28935 18.5692 3.42467 18.8437 3.67634 18.9518Z" fill="#191919"/>
</svg>
