<svg width="24" height="26" viewBox="0 0 24 26" fill="none" xmlns="http://www.w3.org/2000/svg">
<path d="M17.743 20.7086C15.4325 20.7086 13.6055 18.828 13.6055 16.5711C13.6055 14.3143 15.4862 12.4337 17.743 12.4337H21.773H23.9224V11.8963C23.9224 9.58579 22.0417 7.75885 19.7849 7.75885C17.2594 7.75885 14.6802 7.75885 12.1547 7.75885C10.4353 7.75885 8.7158 7.75885 6.99633 7.75885C6.13659 7.75885 5.27685 7.81259 4.47085 7.70512C2.16031 7.32899 1.35431 4.26618 3.23498 2.81537C4.09472 2.11683 5.16939 2.2243 6.24406 2.2243H16.3997H20.161C20.967 2.2243 21.6656 2.65417 21.8268 3.51391C21.9342 4.21244 21.8268 4.96471 21.8268 5.66325C21.8268 7.06032 23.9761 7.06032 23.9761 5.66325C23.9761 4.96471 24.0299 4.26618 23.9761 3.56764C23.8687 2.00937 22.794 0.612297 21.2894 0.182429C20.3222 -0.0862389 19.0864 0.021228 18.0654 0.021228C14.3578 0.021228 10.6502 0.021228 6.94259 0.021228C5.86792 0.021228 4.63205 -0.0862392 3.55738 0.236162C2.37524 0.558563 1.35431 1.36457 0.76324 2.43924C-0.15023 3.99751 0.0109701 5.93191 0.0109701 7.70512V13.1859V18.6668V21.246C0.0109701 23.5565 1.89164 25.3834 4.14845 25.3834H19.7849C22.0954 25.3834 23.9224 23.5028 23.9224 21.246V20.7086H21.773H17.743Z" fill="white"/>
<path d="M21.8267 14.582H17.7967C16.7221 14.582 15.8086 15.4955 15.8086 16.5702C15.8086 17.6448 16.7221 18.5583 17.7967 18.5583H21.8267H23.9761V14.582H21.8267Z" fill="white"/>
<path d="M7.80181 3.94336C7.31821 3.94336 6.88834 3.94336 6.40474 3.94336C5.00767 3.94336 5.00767 6.0927 6.40474 6.0927H16.1305H17.5276C18.9246 6.0927 18.9246 3.94336 17.5276 3.94336C14.3036 3.94336 11.0796 3.94336 7.80181 3.94336Z" fill="white"/>
</svg>
